{
    "patcher": {
        "fileversion": 1,
        "appversion": {
            "major": 9,
            "minor": 1,
            "revision": 4,
            "architecture": "x64",
            "modernui": 1
        },
        "classnamespace": "box",
        "rect": [ -537.0, -988.0, 2117.0, 954.0 ],
        "boxes": [
            {
                "box": {
                    "id": "obj-1",
                    "maxclass": "newobj",
                    "numinlets": 1,
                    "numoutlets": 1,
                    "outlettype": [ "bang" ],
                    "patching_rect": [ 372.0, 304.0, 58.0, 22.0 ],
                    "text": "loadbang"
                }
            },
            {
                "box": {
                    "fontface": 0,
                    "fontname": "Arial",
                    "fontsize": 11.5,
                    "id": "obj-10",
                    "items": [ "mg", ",", "mm", ",", "mm", ",", "mm", ",", "N/m", ",", "mm^-2", ",", "mg", ",", "mm", ",", "mm", ",", "mm", ",", "N/m", ",", "mm-2", ",", "N/m", ",", "NA", ",", "mm-2", ",", "m/s", ",", "kg/m^3", ",", "NA", ",", "s^-1" ],
                    "maxclass": "chooser",
                    "numinlets": 1,
                    "numoutlets": 6,
                    "outlettype": [ "", "", "", "", "", "" ],
                    "parameter_enable": 0,
                    "patching_rect": [ 385.0, 417.0, 101.0, 399.0 ]
                }
            },
            {
                "box": {
                    "id": "obj-125",
                    "maxclass": "newobj",
                    "numinlets": 1,
                    "numoutlets": 1,
                    "outlettype": [ "bang" ],
                    "patching_rect": [ 304.0, 337.0, 22.0, 22.0 ],
                    "text": "t b"
                }
            },
            {
                "box": {
                    "id": "obj-124",
                    "maxclass": "newobj",
                    "numinlets": 0,
                    "numoutlets": 1,
                    "outlettype": [ "" ],
                    "patching_rect": [ 304.0, 304.0, 56.0, 22.0 ],
                    "text": "r params"
                }
            },
            {
                "box": {
                    "id": "obj-123",
                    "maxclass": "newobj",
                    "numinlets": 0,
                    "numoutlets": 1,
                    "outlettype": [ "" ],
                    "patching_rect": [ 200.0, 233.0, 65.0, 22.0 ],
                    "text": "r message"
                }
            },
            {
                "box": {
                    "id": "obj-122",
                    "maxclass": "message",
                    "numinlets": 2,
                    "numoutlets": 1,
                    "outlettype": [ "" ],
                    "patching_rect": [ 304.0, 366.0, 79.0, 22.0 ],
                    "text": "print_params"
                }
            },
            {
                "box": {
                    "id": "obj-120",
                    "maxclass": "newobj",
                    "numinlets": 1,
                    "numoutlets": 0,
                    "patching_rect": [ 304.0, 390.0, 67.0, 22.0 ],
                    "text": "s message"
                }
            },
            {
                "box": {
                    "id": "obj-117",
                    "maxclass": "newobj",
                    "numinlets": 0,
                    "numoutlets": 1,
                    "outlettype": [ "" ],
                    "patching_rect": [ 139.0, 308.0, 35.0, 22.0 ],
                    "text": "r info"
                }
            },
            {
                "box": {
                    "id": "obj-116",
                    "maxclass": "newobj",
                    "numinlets": 1,
                    "numoutlets": 0,
                    "patching_rect": [ 77.0, 296.0, 37.0, 22.0 ],
                    "text": "s info"
                }
            },
            {
                "box": {
                    "id": "obj-58",
                    "maxclass": "newobj",
                    "numinlets": 1,
                    "numoutlets": 2,
                    "outlettype": [ "bang", "" ],
                    "patching_rect": [ 139.0, 364.0, 29.5, 22.0 ],
                    "text": "t b l"
                }
            },
            {
                "box": {
                    "id": "obj-56",
                    "maxclass": "dict.view",
                    "numinlets": 1,
                    "numoutlets": 0,
                    "patching_rect": [ 138.0, 417.0, 245.0, 399.0 ]
                }
            },
            {
                "box": {
                    "id": "obj-54",
                    "maxclass": "newobj",
                    "numinlets": 1,
                    "numoutlets": 1,
                    "outlettype": [ "" ],
                    "patching_rect": [ 139.0, 338.0, 72.0, 22.0 ],
                    "text": "prepend set"
                }
            },
            {
                "box": {
                    "id": "obj-44",
                    "maxclass": "newobj",
                    "numinlets": 2,
                    "numoutlets": 5,
                    "outlettype": [ "dictionary", "", "", "", "" ],
                    "patching_rect": [ 139.0, 390.0, 61.0, 22.0 ],
                    "saved_object_attributes": {
                        "legacy": 0,
                        "parameter_enable": 0,
                        "parameter_mappable": 0
                    },
                    "text": "dict"
                }
            },
            {
                "box": {
                    "id": "obj-115",
                    "maxclass": "comment",
                    "numinlets": 1,
                    "numoutlets": 0,
                    "patching_rect": [ 138.0, 274.0, 221.0, 20.0 ],
                    "text": "Print physical parameters"
                }
            },
            {
                "box": {
                    "id": "obj-113",
                    "maxclass": "newobj",
                    "numinlets": 1,
                    "numoutlets": 1,
                    "outlettype": [ "bang" ],
                    "patching_rect": [ 771.0, 302.5, 22.0, 22.0 ],
                    "text": "t b"
                }
            },
            {
                "box": {
                    "id": "obj-93",
                    "maxclass": "newobj",
                    "numinlets": 1,
                    "numoutlets": 0,
                    "patching_rect": [ 771.0, 361.0, 58.0, 22.0 ],
                    "text": "s params"
                }
            },
            {
                "box": {
                    "id": "obj-94",
                    "maxclass": "comment",
                    "numinlets": 1,
                    "numoutlets": 0,
                    "patching_rect": [ 760.0, 251.0, 250.0, 20.0 ],
                    "text": "Higher level: muscle activation control"
                }
            },
            {
                "box": {
                    "format": 6,
                    "id": "obj-106",
                    "maxclass": "flonum",
                    "maximum": 1.0,
                    "minimum": 0.0,
                    "numinlets": 1,
                    "numoutlets": 2,
                    "outlettype": [ "", "bang" ],
                    "parameter_enable": 1,
                    "patching_rect": [ 931.0, 273.0, 50.0, 22.0 ],
                    "saved_attribute_attributes": {
                        "valueof": {
                            "parameter_longname": "number[14]",
                            "parameter_mmax": 1.0,
                            "parameter_modmode": 3,
                            "parameter_shortname": "number[5]",
                            "parameter_type": 0
                        }
                    },
                    "varname": "number[12]"
                }
            },
            {
                "box": {
                    "format": 6,
                    "id": "obj-107",
                    "maxclass": "flonum",
                    "maximum": 1.0,
                    "minimum": 0.0,
                    "numinlets": 1,
                    "numoutlets": 2,
                    "outlettype": [ "", "bang" ],
                    "parameter_enable": 1,
                    "patching_rect": [ 877.6666666666666, 273.0, 50.0, 22.0 ],
                    "saved_attribute_attributes": {
                        "valueof": {
                            "parameter_longname": "number[15]",
                            "parameter_mmax": 1.0,
                            "parameter_modmode": 3,
                            "parameter_shortname": "number[4]",
                            "parameter_type": 0
                        }
                    },
                    "varname": "number[13]"
                }
            },
            {
                "box": {
                    "format": 6,
                    "id": "obj-108",
                    "maxclass": "flonum",
                    "maximum": 1.0,
                    "minimum": 0.0,
                    "numinlets": 1,
                    "numoutlets": 2,
                    "outlettype": [ "", "bang" ],
                    "parameter_enable": 1,
                    "patching_rect": [ 824.3333333333334, 273.0, 50.0, 22.0 ],
                    "saved_attribute_attributes": {
                        "valueof": {
                            "parameter_longname": "number[16]",
                            "parameter_mmax": 1.0,
                            "parameter_modmode": 3,
                            "parameter_shortname": "number[3]",
                            "parameter_type": 0
                        }
                    },
                    "varname": "number[14]"
                }
            },
            {
                "box": {
                    "id": "obj-110",
                    "maxclass": "newobj",
                    "numinlets": 4,
                    "numoutlets": 1,
                    "outlettype": [ "" ],
                    "patching_rect": [ 771.0, 333.0, 179.0, 22.0 ],
                    "text": "pack muscles_activation 0. 0. 0."
                }
            },
            {
                "box": {
                    "id": "obj-90",
                    "maxclass": "newobj",
                    "numinlets": 1,
                    "numoutlets": 0,
                    "patching_rect": [ 1052.0, 216.0, 58.0, 22.0 ],
                    "text": "s params"
                }
            },
            {
                "box": {
                    "id": "obj-89",
                    "maxclass": "newobj",
                    "numinlets": 1,
                    "numoutlets": 0,
                    "patching_rect": [ 772.0, 216.0, 58.0, 22.0 ],
                    "text": "s params"
                }
            },
            {
                "box": {
                    "id": "obj-88",
                    "maxclass": "newobj",
                    "numinlets": 1,
                    "numoutlets": 0,
                    "patching_rect": [ 771.0, 123.0, 58.0, 22.0 ],
                    "text": "s params"
                }
            },
            {
                "box": {
                    "id": "obj-87",
                    "maxclass": "newobj",
                    "numinlets": 0,
                    "numoutlets": 1,
                    "outlettype": [ "" ],
                    "patching_rect": [ 130.0, 233.0, 56.0, 22.0 ],
                    "text": "r params"
                }
            },
            {
                "box": {
                    "id": "obj-84",
                    "maxclass": "comment",
                    "numinlets": 1,
                    "numoutlets": 0,
                    "patching_rect": [ 517.0, 13.0, 221.0, 20.0 ],
                    "text": "Trackpad control"
                }
            },
            {
                "box": {
                    "id": "obj-82",
                    "maxclass": "comment",
                    "numinlets": 1,
                    "numoutlets": 0,
                    "patching_rect": [ 760.0, 13.0, 250.0, 20.0 ],
                    "text": "Low level physical parameters setters"
                }
            },
            {
                "box": {
                    "id": "obj-80",
                    "maxclass": "newobj",
                    "numinlets": 1,
                    "numoutlets": 0,
                    "patching_rect": [ 557.0, 355.0, 32.0, 22.0 ],
                    "text": "s F1"
                }
            },
            {
                "box": {
                    "id": "obj-79",
                    "maxclass": "newobj",
                    "numinlets": 1,
                    "numoutlets": 0,
                    "patching_rect": [ 557.0, 262.0, 32.0, 22.0 ],
                    "text": "s F0"
                }
            },
            {
                "box": {
                    "id": "obj-76",
                    "maxclass": "comment",
                    "numinlets": 1,
                    "numoutlets": 0,
                    "patching_rect": [ 326.0, 88.0, 150.0, 20.0 ],
                    "text": "Second formant frequency"
                }
            },
            {
                "box": {
                    "format": 6,
                    "id": "obj-75",
                    "maxclass": "flonum",
                    "numinlets": 1,
                    "numoutlets": 2,
                    "outlettype": [ "", "bang" ],
                    "parameter_enable": 0,
                    "patching_rect": [ 326.0, 110.0, 50.0, 22.0 ]
                }
            },
            {
                "box": {
                    "id": "obj-73",
                    "maxclass": "comment",
                    "numinlets": 1,
                    "numoutlets": 0,
                    "patching_rect": [ 178.0, 88.0, 150.0, 20.0 ],
                    "text": "First formant frequency"
                }
            },
            {
                "box": {
                    "format": 6,
                    "id": "obj-74",
                    "maxclass": "flonum",
                    "numinlets": 1,
                    "numoutlets": 2,
                    "outlettype": [ "", "bang" ],
                    "parameter_enable": 0,
                    "patching_rect": [ 183.0, 110.0, 50.0, 22.0 ]
                }
            },
            {
                "box": {
                    "id": "obj-72",
                    "maxclass": "newobj",
                    "numinlets": 1,
                    "numoutlets": 2,
                    "outlettype": [ "bang", "float" ],
                    "patching_rect": [ 326.0, 139.0, 29.5, 22.0 ],
                    "text": "t b f"
                }
            },
            {
                "box": {
                    "id": "obj-71",
                    "maxclass": "newobj",
                    "numinlets": 2,
                    "numoutlets": 1,
                    "outlettype": [ "" ],
                    "patching_rect": [ 183.0, 174.0, 61.0, 22.0 ],
                    "text": "pack 0. 0."
                }
            },
            {
                "box": {
                    "id": "obj-70",
                    "maxclass": "newobj",
                    "numinlets": 0,
                    "numoutlets": 1,
                    "outlettype": [ "" ],
                    "patching_rect": [ 326.0, 63.0, 30.0, 22.0 ],
                    "text": "r F1"
                }
            },
            {
                "box": {
                    "id": "obj-69",
                    "maxclass": "newobj",
                    "numinlets": 0,
                    "numoutlets": 1,
                    "outlettype": [ "" ],
                    "patching_rect": [ 183.0, 63.0, 30.0, 22.0 ],
                    "text": "r F0"
                }
            },
            {
                "box": {
                    "id": "obj-68",
                    "maxclass": "comment",
                    "numinlets": 1,
                    "numoutlets": 0,
                    "patching_rect": [ 20.0, 18.0, 456.0, 20.0 ],
                    "text": "Control: subglottal pressure and vocal tract articulation from formant frequencies"
                }
            },
            {
                "box": {
                    "id": "obj-65",
                    "maxclass": "comment",
                    "numinlets": 1,
                    "numoutlets": 0,
                    "patching_rect": [ 24.0, 240.0, 80.0, 20.0 ],
                    "text": "Synthesis"
                }
            },
            {
                "box": {
                    "id": "obj-53",
                    "maxclass": "comment",
                    "numinlets": 1,
                    "numoutlets": 0,
                    "patching_rect": [ 24.0, 88.0, 115.0, 20.0 ],
                    "text": "Subglottal pressure"
                }
            },
            {
                "box": {
                    "id": "obj-51",
                    "maxclass": "newobj",
                    "numinlets": 0,
                    "numoutlets": 1,
                    "outlettype": [ "" ],
                    "patching_rect": [ 24.0, 63.0, 63.0, 22.0 ],
                    "text": "r pressure"
                }
            },
            {
                "box": {
                    "id": "obj-50",
                    "maxclass": "newobj",
                    "numinlets": 1,
                    "numoutlets": 0,
                    "patching_rect": [ 604.0, 164.0, 65.0, 22.0 ],
                    "text": "s pressure"
                }
            },
            {
                "box": {
                    "id": "obj-43",
                    "maxclass": "message",
                    "numinlets": 2,
                    "numoutlets": 1,
                    "outlettype": [ "" ],
                    "patching_rect": [ 602.0, 45.0, 37.0, 22.0 ],
                    "text": "close"
                }
            },
            {
                "box": {
                    "id": "obj-35",
                    "maxclass": "message",
                    "numinlets": 2,
                    "numoutlets": 1,
                    "outlettype": [ "" ],
                    "patching_rect": [ 653.0, 45.0, 42.0, 22.0 ],
                    "text": "freeze"
                }
            },
            {
                "box": {
                    "id": "obj-34",
                    "maxclass": "message",
                    "numinlets": 2,
                    "numoutlets": 1,
                    "outlettype": [ "" ],
                    "patching_rect": [ 552.0, 45.0, 45.0, 22.0 ],
                    "text": "open 0"
                }
            },
            {
                "box": {
                    "id": "obj-45",
                    "maxclass": "newobj",
                    "numinlets": 1,
                    "numoutlets": 13,
                    "outlettype": [ "int", "", "float", "float", "float", "float", "float", "float", "float", "float", "float", "float", "float" ],
                    "patching_rect": [ 552.0, 126.0, 145.0, 22.0 ],
                    "text": "unpack i s f f f f f f f f f f f"
                }
            },
            {
                "box": {
                    "id": "obj-29",
                    "maxclass": "newobj",
                    "numinlets": 1,
                    "numoutlets": 2,
                    "outlettype": [ "", "" ],
                    "patching_rect": [ 552.0, 89.0, 71.5, 22.0 ],
                    "text": "trackpad"
                }
            },
            {
                "box": {
                    "id": "obj-30",
                    "maxclass": "button",
                    "numinlets": 1,
                    "numoutlets": 1,
                    "outlettype": [ "bang" ],
                    "parameter_enable": 0,
                    "patching_rect": [ 771.0, 157.0, 24.0, 24.0 ]
                }
            },
            {
                "box": {
                    "id": "obj-19",
                    "maxclass": "newobj",
                    "numinlets": 4,
                    "numoutlets": 1,
                    "outlettype": [ "" ],
                    "patching_rect": [ 772.0, 186.0, 245.0, 22.0 ],
                    "text": "pack rest_positions 0.00009 0.00009 0.0015"
                }
            },
            {
                "box": {
                    "id": "obj-4",
                    "lastchannelcount": 0,
                    "maxclass": "live.gain~",
                    "numinlets": 2,
                    "numoutlets": 5,
                    "outlettype": [ "signal", "signal", "", "float", "list" ],
                    "parameter_enable": 1,
                    "patching_rect": [ 25.0, 341.0, 78.0, 90.0 ],
                    "saved_attribute_attributes": {
                        "valueof": {
                            "parameter_longname": "Output gain",
                            "parameter_mmax": 6.0,
                            "parameter_mmin": -70.0,
                            "parameter_modmode": 3,
                            "parameter_shortname": "Output gain",
                            "parameter_type": 0,
                            "parameter_unitstyle": 4
                        }
                    },
                    "varname": "Output"
                }
            },
            {
                "box": {
                    "id": "obj-6",
                    "maxclass": "newobj",
                    "numinlets": 1,
                    "numoutlets": 2,
                    "outlettype": [ "signal", "list" ],
                    "patching_rect": [ 32.0, 266.0, 64.0, 22.0 ],
                    "text": "tarte.voice"
                }
            },
            {
                "box": {
                    "format": 6,
                    "id": "obj-8",
                    "maxclass": "flonum",
                    "maximum": 10000.0,
                    "minimum": 0.0,
                    "numinlets": 1,
                    "numoutlets": 2,
                    "outlettype": [ "", "bang" ],
                    "parameter_enable": 1,
                    "patching_rect": [ 24.0, 110.0, 50.0, 22.0 ],
                    "saved_attribute_attributes": {
                        "valueof": {
                            "parameter_longname": "number",
                            "parameter_mmax": 10000.0,
                            "parameter_modmode": 3,
                            "parameter_shortname": "number",
                            "parameter_type": 0
                        }
                    },
                    "varname": "number"
                }
            },
            {
                "box": {
                    "format": 6,
                    "id": "obj-7",
                    "maxclass": "flonum",
                    "numinlets": 1,
                    "numoutlets": 2,
                    "outlettype": [ "", "bang" ],
                    "parameter_enable": 0,
                    "patching_rect": [ 83.0, 139.0, 50.0, 22.0 ]
                }
            },
            {
                "box": {
                    "id": "obj-3",
                    "maxclass": "newobj",
                    "numinlets": 2,
                    "numoutlets": 1,
                    "outlettype": [ "signal" ],
                    "patching_rect": [ 25.0, 177.0, 78.0, 22.0 ],
                    "text": "onepole~ 10."
                }
            },
            {
                "box": {
                    "id": "obj-5",
                    "maxclass": "newobj",
                    "numinlets": 1,
                    "numoutlets": 1,
                    "outlettype": [ "signal" ],
                    "patching_rect": [ 25.0, 139.0, 31.0, 22.0 ],
                    "text": "sig~"
                }
            },
            {
                "box": {
                    "id": "obj-138",
                    "linecount": 2,
                    "maxclass": "newobj",
                    "numinlets": 1,
                    "numoutlets": 1,
                    "outlettype": [ "" ],
                    "patching_rect": [ 557.0, 203.0, 106.0, 35.0 ],
                    "text": "expr $f1*(749.4 - 180.6)+180.6"
                }
            },
            {
                "box": {
                    "id": "obj-137",
                    "linecount": 2,
                    "maxclass": "newobj",
                    "numinlets": 1,
                    "numoutlets": 1,
                    "outlettype": [ "" ],
                    "patching_rect": [ 557.0, 296.0, 149.0, 35.0 ],
                    "text": "expr (1-$f1)*(2285.1 - 447.9)+447.9"
                }
            },
            {
                "box": {
                    "format": 6,
                    "id": "obj-27",
                    "maxclass": "flonum",
                    "maximum": 200.0,
                    "minimum": 0.1,
                    "numinlets": 1,
                    "numoutlets": 2,
                    "outlettype": [ "", "bang" ],
                    "parameter_enable": 1,
                    "patching_rect": [ 1180.0, 158.0, 50.0, 22.0 ],
                    "saved_attribute_attributes": {
                        "valueof": {
                            "parameter_longname": "number[9]",
                            "parameter_mmax": 200.0,
                            "parameter_mmin": 0.1,
                            "parameter_modmode": 3,
                            "parameter_shortname": "number[9]",
                            "parameter_type": 0
                        }
                    },
                    "varname": "number[9]"
                }
            },
            {
                "box": {
                    "format": 6,
                    "id": "obj-21",
                    "maxclass": "flonum",
                    "maximum": 200.0,
                    "minimum": 0.1,
                    "numinlets": 1,
                    "numoutlets": 2,
                    "outlettype": [ "", "bang" ],
                    "parameter_enable": 1,
                    "patching_rect": [ 1148.0, 131.0, 50.0, 22.0 ],
                    "saved_attribute_attributes": {
                        "valueof": {
                            "parameter_longname": "number[8]",
                            "parameter_mmax": 200.0,
                            "parameter_mmin": 0.1,
                            "parameter_modmode": 3,
                            "parameter_shortname": "number[8]",
                            "parameter_type": 0
                        }
                    },
                    "varname": "number[8]"
                }
            },
            {
                "box": {
                    "format": 6,
                    "id": "obj-23",
                    "maxclass": "flonum",
                    "maximum": 200.0,
                    "minimum": 0.1,
                    "numinlets": 1,
                    "numoutlets": 2,
                    "outlettype": [ "", "bang" ],
                    "parameter_enable": 1,
                    "patching_rect": [ 1116.0, 103.0, 50.0, 22.0 ],
                    "saved_attribute_attributes": {
                        "valueof": {
                            "parameter_longname": "number[7]",
                            "parameter_mmax": 200.0,
                            "parameter_mmin": 0.1,
                            "parameter_modmode": 3,
                            "parameter_shortname": "number[7]",
                            "parameter_type": 0
                        }
                    },
                    "varname": "number[7]"
                }
            },
            {
                "box": {
                    "format": 6,
                    "id": "obj-24",
                    "maxclass": "flonum",
                    "maximum": 200.0,
                    "minimum": 0.1,
                    "numinlets": 1,
                    "numoutlets": 2,
                    "outlettype": [ "", "bang" ],
                    "parameter_enable": 1,
                    "patching_rect": [ 1084.0, 77.0, 50.0, 22.0 ],
                    "saved_attribute_attributes": {
                        "valueof": {
                            "parameter_longname": "number[6]",
                            "parameter_mmax": 200.0,
                            "parameter_mmin": 0.1,
                            "parameter_modmode": 3,
                            "parameter_shortname": "number[6]",
                            "parameter_type": 0
                        }
                    },
                    "varname": "number[6]"
                }
            },
            {
                "box": {
                    "id": "obj-25",
                    "maxclass": "button",
                    "numinlets": 1,
                    "numoutlets": 1,
                    "outlettype": [ "bang" ],
                    "parameter_enable": 0,
                    "patching_rect": [ 1052.0, 150.0, 24.0, 24.0 ]
                }
            },
            {
                "box": {
                    "id": "obj-26",
                    "maxclass": "newobj",
                    "numinlets": 5,
                    "numoutlets": 1,
                    "outlettype": [ "" ],
                    "patching_rect": [ 1052.0, 186.0, 147.0, 22.0 ],
                    "text": "pack stiffnesses 1. 1. 1. 1."
                }
            },
            {
                "box": {
                    "id": "obj-15",
                    "maxclass": "newobj",
                    "numinlets": 2,
                    "numoutlets": 1,
                    "outlettype": [ "float" ],
                    "patching_rect": [ 971.0, 60.0, 60.0, 22.0 ],
                    "text": "* 0.00001"
                }
            },
            {
                "box": {
                    "id": "obj-14",
                    "maxclass": "newobj",
                    "numinlets": 2,
                    "numoutlets": 1,
                    "outlettype": [ "float" ],
                    "patching_rect": [ 905.0, 60.0, 60.0, 22.0 ],
                    "text": "* 0.00001"
                }
            },
            {
                "box": {
                    "id": "obj-13",
                    "maxclass": "newobj",
                    "numinlets": 2,
                    "numoutlets": 1,
                    "outlettype": [ "float" ],
                    "patching_rect": [ 838.0, 60.0, 60.0, 22.0 ],
                    "text": "* 0.00001"
                }
            },
            {
                "box": {
                    "format": 6,
                    "id": "obj-22",
                    "maxclass": "flonum",
                    "maximum": 10.0,
                    "minimum": 0.1,
                    "numinlets": 1,
                    "numoutlets": 2,
                    "outlettype": [ "", "bang" ],
                    "parameter_enable": 1,
                    "patching_rect": [ 971.0, 35.0, 50.0, 22.0 ],
                    "saved_attribute_attributes": {
                        "valueof": {
                            "parameter_longname": "number[5]",
                            "parameter_mmax": 10.0,
                            "parameter_mmin": 0.1,
                            "parameter_modmode": 3,
                            "parameter_shortname": "number[5]",
                            "parameter_type": 0
                        }
                    },
                    "varname": "number[5]"
                }
            },
            {
                "box": {
                    "format": 6,
                    "id": "obj-20",
                    "maxclass": "flonum",
                    "maximum": 10.0,
                    "minimum": 0.1,
                    "numinlets": 1,
                    "numoutlets": 2,
                    "outlettype": [ "", "bang" ],
                    "parameter_enable": 1,
                    "patching_rect": [ 905.0, 35.0, 50.0, 22.0 ],
                    "saved_attribute_attributes": {
                        "valueof": {
                            "parameter_longname": "number[4]",
                            "parameter_mmax": 10.0,
                            "parameter_mmin": 0.1,
                            "parameter_modmode": 3,
                            "parameter_shortname": "number[4]",
                            "parameter_type": 0
                        }
                    },
                    "varname": "number[4]"
                }
            },
            {
                "box": {
                    "format": 6,
                    "id": "obj-18",
                    "maxclass": "flonum",
                    "maximum": 10.0,
                    "minimum": 0.1,
                    "numinlets": 1,
                    "numoutlets": 2,
                    "outlettype": [ "", "bang" ],
                    "parameter_enable": 1,
                    "patching_rect": [ 838.0, 35.0, 50.0, 22.0 ],
                    "saved_attribute_attributes": {
                        "valueof": {
                            "parameter_longname": "number[3]",
                            "parameter_mmax": 10.0,
                            "parameter_mmin": 0.1,
                            "parameter_modmode": 3,
                            "parameter_shortname": "number[3]",
                            "parameter_type": 0
                        }
                    },
                    "varname": "number[3]"
                }
            },
            {
                "box": {
                    "id": "obj-16",
                    "maxclass": "button",
                    "numinlets": 1,
                    "numoutlets": 1,
                    "outlettype": [ "bang" ],
                    "parameter_enable": 0,
                    "patching_rect": [ 771.0, 59.0, 24.0, 24.0 ]
                }
            },
            {
                "box": {
                    "id": "obj-12",
                    "maxclass": "newobj",
                    "numinlets": 4,
                    "numoutlets": 1,
                    "outlettype": [ "" ],
                    "patching_rect": [ 771.0, 95.0, 219.0, 22.0 ],
                    "text": "pack masses 0.00001 0.00001 0.00001"
                }
            },
            {
                "box": {
                    "id": "obj-28",
                    "maxclass": "newobj",
                    "numinlets": 1,
                    "numoutlets": 1,
                    "outlettype": [ "" ],
                    "patching_rect": [ 371.0, 156.0, 73.0, 22.0 ],
                    "text": "loadmess 5."
                }
            },
            {
                "box": {
                    "id": "obj-11",
                    "maxclass": "newobj",
                    "numinlets": 1,
                    "numoutlets": 1,
                    "outlettype": [ "" ],
                    "patching_rect": [ 371.0, 187.0, 104.0, 22.0 ],
                    "text": "prepend lpf_cutoff"
                }
            },
            {
                "box": {
                    "id": "obj-2",
                    "local": 1,
                    "maxclass": "ezdac~",
                    "numinlets": 2,
                    "numoutlets": 0,
                    "patching_rect": [ 41.0, 464.0, 45.0, 45.0 ]
                }
            },
            {
                "box": {
                    "angle": 270.0,
                    "background": 1,
                    "bgcolor": [ 0.3137254901960784, 0.3137254901960784, 0.3137254901960784, 1.0 ],
                    "bordercolor": [ 0.25098039215686274, 0.20392156862745098, 0.9372549019607843, 1.0 ],
                    "id": "obj-114",
                    "maxclass": "panel",
                    "mode": 0,
                    "numinlets": 1,
                    "numoutlets": 0,
                    "patching_rect": [ 128.0, 265.0, 377.0, 576.0 ],
                    "proportion": 0.5
                }
            },
            {
                "box": {
                    "angle": 270.0,
                    "background": 1,
                    "bgcolor": [ 0.3137254901960784, 0.3137254901960784, 0.3137254901960784, 1.0 ],
                    "bordercolor": [ 0.25098039215686274, 0.20392156862745098, 0.9372549019607843, 1.0 ],
                    "id": "obj-67",
                    "maxclass": "panel",
                    "mode": 0,
                    "numinlets": 1,
                    "numoutlets": 0,
                    "patching_rect": [ 16.0, 13.0, 493.0, 204.0 ],
                    "proportion": 0.5
                }
            },
            {
                "box": {
                    "angle": 270.0,
                    "background": 1,
                    "bgcolor": [ 0.3137254901960784, 0.3137254901960784, 0.3137254901960784, 1.0 ],
                    "bordercolor": [ 0.25098039215686274, 0.20392156862745098, 0.9372549019607843, 1.0 ],
                    "id": "obj-63",
                    "maxclass": "panel",
                    "mode": 0,
                    "numinlets": 1,
                    "numoutlets": 0,
                    "patching_rect": [ 16.0, 233.0, 101.0, 90.5 ],
                    "proportion": 0.5
                }
            },
            {
                "box": {
                    "angle": 270.0,
                    "background": 1,
                    "bgcolor": [ 0.3137254901960784, 0.3137254901960784, 0.3137254901960784, 1.0 ],
                    "bordercolor": [ 0.25098039215686274, 0.20392156862745098, 0.9372549019607843, 1.0 ],
                    "id": "obj-62",
                    "maxclass": "panel",
                    "mode": 0,
                    "numinlets": 1,
                    "numoutlets": 0,
                    "patching_rect": [ 16.0, 332.0, 101.0, 194.0 ],
                    "proportion": 0.5
                }
            },
            {
                "box": {
                    "angle": 270.0,
                    "background": 1,
                    "bgcolor": [ 0.3137254901960784, 0.3137254901960784, 0.3137254901960784, 1.0 ],
                    "bordercolor": [ 0.25098039215686274, 0.20392156862745098, 0.9372549019607843, 1.0 ],
                    "id": "obj-83",
                    "maxclass": "panel",
                    "mode": 0,
                    "numinlets": 1,
                    "numoutlets": 0,
                    "patching_rect": [ 516.0, 13.0, 231.0, 375.0 ],
                    "proportion": 0.5
                }
            },
            {
                "box": {
                    "angle": 270.0,
                    "background": 1,
                    "bgcolor": [ 0.3137254901960784, 0.3137254901960784, 0.3137254901960784, 1.0 ],
                    "bordercolor": [ 0.25098039215686274, 0.20392156862745098, 0.9372549019607843, 1.0 ],
                    "id": "obj-81",
                    "maxclass": "panel",
                    "mode": 0,
                    "numinlets": 1,
                    "numoutlets": 0,
                    "patching_rect": [ 755.0, 13.0, 475.0, 230.0 ],
                    "proportion": 0.5
                }
            },
            {
                "box": {
                    "angle": 270.0,
                    "background": 1,
                    "bgcolor": [ 0.3137254901960784, 0.3137254901960784, 0.3137254901960784, 1.0 ],
                    "bordercolor": [ 0.25098039215686274, 0.20392156862745098, 0.9372549019607843, 1.0 ],
                    "id": "obj-111",
                    "maxclass": "panel",
                    "mode": 0,
                    "numinlets": 1,
                    "numoutlets": 0,
                    "patching_rect": [ 755.0, 251.0, 255.0, 137.0 ],
                    "proportion": 0.5
                }
            }
        ],
        "lines": [
            {
                "patchline": {
                    "destination": [ "obj-122", 0 ],
                    "midpoints": [ 381.5, 351.0, 327.0, 351.0, 327.0, 363.0, 313.5, 363.0 ],
                    "source": [ "obj-1", 0 ]
                }
            },
            {
                "patchline": {
                    "destination": [ "obj-110", 3 ],
                    "midpoints": [ 940.5, 297.0, 940.5, 297.0 ],
                    "order": 0,
                    "source": [ "obj-106", 0 ]
                }
            },
            {
                "patchline": {
                    "destination": [ "obj-113", 0 ],
                    "midpoints": [ 940.5, 306.0, 804.0, 306.0, 804.0, 297.0, 780.5, 297.0 ],
                    "order": 1,
                    "source": [ "obj-106", 0 ]
                }
            },
            {
                "patchline": {
                    "destination": [ "obj-110", 2 ],
                    "midpoints": [ 887.1666666666666, 297.0, 887.1666666666666, 297.0 ],
                    "order": 0,
                    "source": [ "obj-107", 0 ]
                }
            },
            {
                "patchline": {
                    "destination": [ "obj-113", 0 ],
                    "midpoints": [ 887.1666666666666, 306.0, 804.0, 306.0, 804.0, 297.0, 780.5, 297.0 ],
                    "order": 1,
                    "source": [ "obj-107", 0 ]
                }
            },
            {
                "patchline": {
                    "destination": [ "obj-110", 1 ],
                    "midpoints": [ 833.8333333333334, 297.0, 833.8333333333334, 297.0 ],
                    "order": 0,
                    "source": [ "obj-108", 0 ]
                }
            },
            {
                "patchline": {
                    "destination": [ "obj-113", 0 ],
                    "midpoints": [ 833.8333333333334, 297.0, 780.5, 297.0 ],
                    "order": 1,
                    "source": [ "obj-108", 0 ]
                }
            },
            {
                "patchline": {
                    "destination": [ "obj-6", 0 ],
                    "midpoints": [ 380.5, 219.0, 114.0, 219.0, 114.0, 261.0, 41.5, 261.0 ],
                    "source": [ "obj-11", 0 ]
                }
            },
            {
                "patchline": {
                    "destination": [ "obj-93", 0 ],
                    "midpoints": [ 780.5, 357.0, 780.5, 357.0 ],
                    "source": [ "obj-110", 0 ]
                }
            },
            {
                "patchline": {
                    "destination": [ "obj-110", 0 ],
                    "midpoints": [ 780.5, 327.0, 780.5, 327.0 ],
                    "source": [ "obj-113", 0 ]
                }
            },
            {
                "patchline": {
                    "destination": [ "obj-54", 0 ],
                    "midpoints": [ 148.5, 333.0, 148.5, 333.0 ],
                    "source": [ "obj-117", 0 ]
                }
            },
            {
                "patchline": {
                    "destination": [ "obj-88", 0 ],
                    "midpoints": [ 780.5, 120.0, 780.5, 120.0 ],
                    "source": [ "obj-12", 0 ]
                }
            },
            {
                "patchline": {
                    "destination": [ "obj-120", 0 ],
                    "midpoints": [ 313.5, 390.0, 313.5, 390.0 ],
                    "source": [ "obj-122", 0 ]
                }
            },
            {
                "patchline": {
                    "destination": [ "obj-6", 0 ],
                    "midpoints": [ 209.5, 258.0, 105.0, 258.0, 105.0, 261.0, 41.5, 261.0 ],
                    "source": [ "obj-123", 0 ]
                }
            },
            {
                "patchline": {
                    "destination": [ "obj-125", 0 ],
                    "midpoints": [ 313.5, 327.0, 313.5, 327.0 ],
                    "source": [ "obj-124", 0 ]
                }
            },
            {
                "patchline": {
                    "destination": [ "obj-122", 0 ],
                    "midpoints": [ 313.5, 360.0, 313.5, 360.0 ],
                    "source": [ "obj-125", 0 ]
                }
            },
            {
                "patchline": {
                    "destination": [ "obj-12", 1 ],
                    "midpoints": [ 847.5, 84.0, 847.1666666666666, 84.0 ],
                    "order": 0,
                    "source": [ "obj-13", 0 ]
                }
            },
            {
                "patchline": {
                    "destination": [ "obj-16", 0 ],
                    "midpoints": [ 847.5, 84.0, 825.0, 84.0, 825.0, 54.0, 780.5, 54.0 ],
                    "order": 1,
                    "source": [ "obj-13", 0 ]
                }
            },
            {
                "patchline": {
                    "destination": [ "obj-80", 0 ],
                    "midpoints": [ 566.5, 333.0, 566.5, 333.0 ],
                    "source": [ "obj-137", 0 ]
                }
            },
            {
                "patchline": {
                    "destination": [ "obj-79", 0 ],
                    "midpoints": [ 566.5, 240.0, 566.5, 240.0 ],
                    "source": [ "obj-138", 0 ]
                }
            },
            {
                "patchline": {
                    "destination": [ "obj-12", 2 ],
                    "midpoints": [ 914.5, 84.0, 913.8333333333334, 84.0 ],
                    "order": 0,
                    "source": [ "obj-14", 0 ]
                }
            },
            {
                "patchline": {
                    "destination": [ "obj-16", 0 ],
                    "midpoints": [ 914.5, 84.0, 825.0, 84.0, 825.0, 54.0, 780.5, 54.0 ],
                    "order": 1,
                    "source": [ "obj-14", 0 ]
                }
            },
            {
                "patchline": {
                    "destination": [ "obj-12", 3 ],
                    "midpoints": [ 980.5, 84.0, 980.5, 84.0 ],
                    "order": 0,
                    "source": [ "obj-15", 0 ]
                }
            },
            {
                "patchline": {
                    "destination": [ "obj-16", 0 ],
                    "midpoints": [ 980.5, 84.0, 825.0, 84.0, 825.0, 54.0, 780.5, 54.0 ],
                    "order": 1,
                    "source": [ "obj-15", 0 ]
                }
            },
            {
                "patchline": {
                    "destination": [ "obj-12", 0 ],
                    "midpoints": [ 780.5, 84.0, 780.5, 84.0 ],
                    "source": [ "obj-16", 0 ]
                }
            },
            {
                "patchline": {
                    "destination": [ "obj-13", 0 ],
                    "midpoints": [ 847.5, 60.0, 847.5, 60.0 ],
                    "source": [ "obj-18", 0 ]
                }
            },
            {
                "patchline": {
                    "destination": [ "obj-89", 0 ],
                    "midpoints": [ 781.5, 210.0, 781.5, 210.0 ],
                    "source": [ "obj-19", 0 ]
                }
            },
            {
                "patchline": {
                    "destination": [ "obj-14", 0 ],
                    "midpoints": [ 914.5, 60.0, 914.5, 60.0 ],
                    "source": [ "obj-20", 0 ]
                }
            },
            {
                "patchline": {
                    "destination": [ "obj-25", 0 ],
                    "midpoints": [ 1157.5, 156.0, 1086.0, 156.0, 1086.0, 147.0, 1061.5, 147.0 ],
                    "order": 1,
                    "source": [ "obj-21", 0 ]
                }
            },
            {
                "patchline": {
                    "destination": [ "obj-26", 3 ],
                    "midpoints": [ 1157.5, 156.0, 1157.5, 156.0 ],
                    "order": 0,
                    "source": [ "obj-21", 0 ]
                }
            },
            {
                "patchline": {
                    "destination": [ "obj-15", 0 ],
                    "midpoints": [ 980.5, 60.0, 980.5, 60.0 ],
                    "source": [ "obj-22", 0 ]
                }
            },
            {
                "patchline": {
                    "destination": [ "obj-25", 0 ],
                    "midpoints": [ 1125.5, 135.0, 1061.5, 135.0 ],
                    "order": 1,
                    "source": [ "obj-23", 0 ]
                }
            },
            {
                "patchline": {
                    "destination": [ "obj-26", 2 ],
                    "midpoints": [ 1125.5, 126.0, 1125.5, 126.0 ],
                    "order": 0,
                    "source": [ "obj-23", 0 ]
                }
            },
            {
                "patchline": {
                    "destination": [ "obj-25", 0 ],
                    "midpoints": [ 1093.5, 135.0, 1061.5, 135.0 ],
                    "order": 1,
                    "source": [ "obj-24", 0 ]
                }
            },
            {
                "patchline": {
                    "destination": [ "obj-26", 1 ],
                    "midpoints": [ 1093.5, 102.0, 1093.5, 102.0 ],
                    "order": 0,
                    "source": [ "obj-24", 0 ]
                }
            },
            {
                "patchline": {
                    "destination": [ "obj-26", 0 ],
                    "midpoints": [ 1061.5, 177.0, 1061.5, 177.0 ],
                    "source": [ "obj-25", 0 ]
                }
            },
            {
                "patchline": {
                    "destination": [ "obj-90", 0 ],
                    "midpoints": [ 1061.5, 210.0, 1061.5, 210.0 ],
                    "source": [ "obj-26", 0 ]
                }
            },
            {
                "patchline": {
                    "destination": [ "obj-25", 0 ],
                    "midpoints": [ 1189.5, 183.0, 1167.0, 183.0, 1167.0, 165.0, 1086.0, 165.0, 1086.0, 147.0, 1061.5, 147.0 ],
                    "order": 1,
                    "source": [ "obj-27", 0 ]
                }
            },
            {
                "patchline": {
                    "destination": [ "obj-26", 4 ],
                    "midpoints": [ 1189.5, 183.0, 1189.5, 183.0 ],
                    "order": 0,
                    "source": [ "obj-27", 0 ]
                }
            },
            {
                "patchline": {
                    "destination": [ "obj-11", 0 ],
                    "midpoints": [ 380.5, 180.0, 380.5, 180.0 ],
                    "source": [ "obj-28", 0 ]
                }
            },
            {
                "patchline": {
                    "destination": [ "obj-45", 0 ],
                    "midpoints": [ 561.5, 114.0, 561.5, 114.0 ],
                    "source": [ "obj-29", 0 ]
                }
            },
            {
                "patchline": {
                    "destination": [ "obj-6", 0 ],
                    "midpoints": [ 34.5, 225.0, 21.0, 225.0, 21.0, 261.0, 41.5, 261.0 ],
                    "source": [ "obj-3", 0 ]
                }
            },
            {
                "patchline": {
                    "destination": [ "obj-19", 0 ],
                    "midpoints": [ 780.5, 183.0, 781.5, 183.0 ],
                    "source": [ "obj-30", 0 ]
                }
            },
            {
                "patchline": {
                    "destination": [ "obj-29", 0 ],
                    "midpoints": [ 561.5, 69.0, 561.5, 69.0 ],
                    "source": [ "obj-34", 0 ]
                }
            },
            {
                "patchline": {
                    "destination": [ "obj-29", 0 ],
                    "midpoints": [ 662.5, 84.0, 561.5, 84.0 ],
                    "source": [ "obj-35", 0 ]
                }
            },
            {
                "patchline": {
                    "destination": [ "obj-2", 1 ],
                    "midpoints": [ 49.25, 450.0, 76.5, 450.0 ],
                    "source": [ "obj-4", 1 ]
                }
            },
            {
                "patchline": {
                    "destination": [ "obj-2", 0 ],
                    "midpoints": [ 34.5, 450.0, 50.5, 450.0 ],
                    "source": [ "obj-4", 0 ]
                }
            },
            {
                "patchline": {
                    "destination": [ "obj-29", 0 ],
                    "midpoints": [ 611.5, 69.0, 561.5, 69.0 ],
                    "source": [ "obj-43", 0 ]
                }
            },
            {
                "patchline": {
                    "destination": [ "obj-56", 0 ],
                    "midpoints": [ 148.5, 414.0, 147.5, 414.0 ],
                    "source": [ "obj-44", 0 ]
                }
            },
            {
                "patchline": {
                    "destination": [ "obj-137", 0 ],
                    "midpoints": [ 593.0, 189.0, 543.0, 189.0, 543.0, 291.0, 566.5, 291.0 ],
                    "source": [ "obj-45", 3 ]
                }
            },
            {
                "patchline": {
                    "destination": [ "obj-138", 0 ],
                    "midpoints": [ 582.5, 189.0, 566.5, 189.0 ],
                    "source": [ "obj-45", 2 ]
                }
            },
            {
                "patchline": {
                    "destination": [ "obj-50", 0 ],
                    "midpoints": [ 614.0, 150.0, 613.5, 150.0 ],
                    "source": [ "obj-45", 5 ]
                }
            },
            {
                "patchline": {
                    "destination": [ "obj-3", 0 ],
                    "midpoints": [ 34.5, 162.0, 34.5, 162.0 ],
                    "source": [ "obj-5", 0 ]
                }
            },
            {
                "patchline": {
                    "destination": [ "obj-8", 0 ],
                    "midpoints": [ 33.5, 87.0, 33.5, 87.0 ],
                    "source": [ "obj-51", 0 ]
                }
            },
            {
                "patchline": {
                    "destination": [ "obj-58", 0 ],
                    "midpoints": [ 148.5, 363.0, 148.5, 363.0 ],
                    "source": [ "obj-54", 0 ]
                }
            },
            {
                "patchline": {
                    "destination": [ "obj-44", 0 ],
                    "midpoints": [ 159.0, 387.0, 148.5, 387.0 ],
                    "source": [ "obj-58", 1 ]
                }
            },
            {
                "patchline": {
                    "destination": [ "obj-44", 0 ],
                    "midpoints": [ 148.5, 387.0, 148.5, 387.0 ],
                    "source": [ "obj-58", 0 ]
                }
            },
            {
                "patchline": {
                    "destination": [ "obj-116", 0 ],
                    "midpoints": [ 86.5, 291.0, 86.5, 291.0 ],
                    "source": [ "obj-6", 1 ]
                }
            },
            {
                "patchline": {
                    "destination": [ "obj-4", 1 ],
                    "midpoints": [ 41.5, 327.0, 93.5, 327.0 ],
                    "order": 0,
                    "source": [ "obj-6", 0 ]
                }
            },
            {
                "patchline": {
                    "destination": [ "obj-4", 0 ],
                    "midpoints": [ 41.5, 327.0, 34.5, 327.0 ],
                    "order": 1,
                    "source": [ "obj-6", 0 ]
                }
            },
            {
                "patchline": {
                    "destination": [ "obj-74", 0 ],
                    "midpoints": [ 192.5, 87.0, 192.5, 87.0 ],
                    "source": [ "obj-69", 0 ]
                }
            },
            {
                "patchline": {
                    "destination": [ "obj-3", 1 ],
                    "midpoints": [ 92.5, 174.0, 93.5, 174.0 ],
                    "source": [ "obj-7", 0 ]
                }
            },
            {
                "patchline": {
                    "destination": [ "obj-75", 0 ],
                    "midpoints": [ 335.5, 87.0, 335.5, 87.0 ],
                    "source": [ "obj-70", 0 ]
                }
            },
            {
                "patchline": {
                    "destination": [ "obj-6", 0 ],
                    "midpoints": [ 192.5, 219.0, 114.0, 219.0, 114.0, 261.0, 41.5, 261.0 ],
                    "source": [ "obj-71", 0 ]
                }
            },
            {
                "patchline": {
                    "destination": [ "obj-71", 1 ],
                    "midpoints": [ 346.0, 171.0, 234.5, 171.0 ],
                    "source": [ "obj-72", 1 ]
                }
            },
            {
                "patchline": {
                    "destination": [ "obj-71", 0 ],
                    "midpoints": [ 335.5, 171.0, 192.5, 171.0 ],
                    "source": [ "obj-72", 0 ]
                }
            },
            {
                "patchline": {
                    "destination": [ "obj-71", 0 ],
                    "midpoints": [ 192.5, 135.0, 192.5, 135.0 ],
                    "source": [ "obj-74", 0 ]
                }
            },
            {
                "patchline": {
                    "destination": [ "obj-72", 0 ],
                    "midpoints": [ 335.5, 135.0, 335.5, 135.0 ],
                    "source": [ "obj-75", 0 ]
                }
            },
            {
                "patchline": {
                    "destination": [ "obj-5", 0 ],
                    "midpoints": [ 33.5, 135.0, 34.5, 135.0 ],
                    "source": [ "obj-8", 0 ]
                }
            },
            {
                "patchline": {
                    "destination": [ "obj-6", 0 ],
                    "midpoints": [ 139.5, 258.0, 105.0, 258.0, 105.0, 261.0, 41.5, 261.0 ],
                    "source": [ "obj-87", 0 ]
                }
            }
        ],
        "parameters": {
            "obj-106": [ "number[14]", "number[5]", 0 ],
            "obj-107": [ "number[15]", "number[4]", 0 ],
            "obj-108": [ "number[16]", "number[3]", 0 ],
            "obj-18": [ "number[3]", "number[3]", 0 ],
            "obj-20": [ "number[4]", "number[4]", 0 ],
            "obj-21": [ "number[8]", "number[8]", 0 ],
            "obj-22": [ "number[5]", "number[5]", 0 ],
            "obj-23": [ "number[7]", "number[7]", 0 ],
            "obj-24": [ "number[6]", "number[6]", 0 ],
            "obj-27": [ "number[9]", "number[9]", 0 ],
            "obj-4": [ "Output gain", "Output gain", 0 ],
            "obj-8": [ "number", "number", 0 ],
            "parameterbanks": {
                "0": {
                    "index": 0,
                    "name": "",
                    "parameters": [ "-", "-", "-", "-", "-", "-", "-", "-" ],
                    "buttons": [ "-", "-", "-", "-", "-", "-", "-", "-" ]
                }
            },
            "inherited_shortname": 1
        },
        "autosave": 0
    }
}